<mxfile host="app.diagrams.net" modified="2023-12-27T14:05:20.958Z" agent="Mozilla/5.0 (Windows NT 10.0; Win64; x64) AppleWebKit/537.36 (KHTML, like Gecko) Chrome/120.0.0.0 Safari/537.36 Edg/120.0.0.0" etag="Q2JpS1CkkXsyT8JVxeqI" version="22.1.12" type="github">
  <diagram name="第 1 页" id="6GLQllDFw6BObMZ7jb3Y">
    <mxGraphModel dx="868" dy="474" grid="0" gridSize="10" guides="1" tooltips="1" connect="1" arrows="1" fold="1" page="1" pageScale="1" pageWidth="827" pageHeight="1169" background="#ffffff" math="0" shadow="0">
      <root>
        <mxCell id="0" />
        <mxCell id="1" parent="0" />
        <mxCell id="B1Vwap48adHIZK-58PaW-22" value="" style="endArrow=classic;html=1;rounded=0;strokeColor=#67AB9F;dashed=1;exitX=1;exitY=0.75;exitDx=0;exitDy=0;" edge="1" parent="1" source="B1Vwap48adHIZK-58PaW-16">
          <mxGeometry width="50" height="50" relative="1" as="geometry">
            <mxPoint x="190" y="320" as="sourcePoint" />
            <mxPoint x="362" y="412" as="targetPoint" />
          </mxGeometry>
        </mxCell>
        <mxCell id="B1Vwap48adHIZK-58PaW-21" value="" style="endArrow=classic;html=1;rounded=0;strokeColor=#67AB9F;dashed=1;exitX=0.986;exitY=0.625;exitDx=0;exitDy=0;exitPerimeter=0;" edge="1" parent="1" source="B1Vwap48adHIZK-58PaW-16">
          <mxGeometry width="50" height="50" relative="1" as="geometry">
            <mxPoint x="207" y="250" as="sourcePoint" />
            <mxPoint x="349" y="327" as="targetPoint" />
          </mxGeometry>
        </mxCell>
        <mxCell id="B1Vwap48adHIZK-58PaW-1" value="訂單管理員" style="shape=module;align=left;spacingLeft=20;align=center;verticalAlign=top;whiteSpace=wrap;html=1;fillColor=#fff2cc;strokeColor=#67AB9F;jettyWidth=27;jettyHeight=8;" vertex="1" parent="1">
          <mxGeometry x="353" y="58" width="108" height="42" as="geometry" />
        </mxCell>
        <mxCell id="B1Vwap48adHIZK-58PaW-13" style="edgeStyle=orthogonalEdgeStyle;rounded=0;orthogonalLoop=1;jettySize=auto;html=1;exitX=1;exitY=0.5;exitDx=0;exitDy=0;strokeColor=#67AB9F;dashed=1;" edge="1" parent="1" source="B1Vwap48adHIZK-58PaW-2">
          <mxGeometry relative="1" as="geometry">
            <mxPoint x="576" y="168" as="targetPoint" />
          </mxGeometry>
        </mxCell>
        <mxCell id="B1Vwap48adHIZK-58PaW-2" value="訂餐者" style="shape=module;align=left;spacingLeft=20;align=center;verticalAlign=top;whiteSpace=wrap;html=1;fillColor=#fff2cc;strokeColor=#67AB9F;jettyWidth=27;jettyHeight=8;" vertex="1" parent="1">
          <mxGeometry x="353" y="147" width="108" height="42" as="geometry" />
        </mxCell>
        <mxCell id="B1Vwap48adHIZK-58PaW-3" value="系統管理員" style="shape=module;align=left;spacingLeft=20;align=center;verticalAlign=top;whiteSpace=wrap;html=1;fillColor=#fff2cc;strokeColor=#67AB9F;jettyWidth=27;jettyHeight=8;" vertex="1" parent="1">
          <mxGeometry x="353" y="236" width="108" height="42" as="geometry" />
        </mxCell>
        <mxCell id="B1Vwap48adHIZK-58PaW-4" value="商家" style="shape=module;align=left;spacingLeft=20;align=center;verticalAlign=top;whiteSpace=wrap;html=1;fillColor=#fff2cc;strokeColor=#67AB9F;jettyWidth=27;jettyHeight=8;" vertex="1" parent="1">
          <mxGeometry x="353" y="325" width="108" height="42" as="geometry" />
        </mxCell>
        <mxCell id="B1Vwap48adHIZK-58PaW-12" style="rounded=0;orthogonalLoop=1;jettySize=auto;html=1;exitX=1;exitY=0;exitDx=0;exitDy=0;strokeColor=#67AB9F;dashed=1;" edge="1" parent="1" source="B1Vwap48adHIZK-58PaW-5">
          <mxGeometry relative="1" as="geometry">
            <mxPoint x="588.8000183105469" y="367.2000427246094" as="targetPoint" />
          </mxGeometry>
        </mxCell>
        <mxCell id="B1Vwap48adHIZK-58PaW-5" value="店鋪管理員" style="shape=module;align=left;spacingLeft=20;align=center;verticalAlign=top;whiteSpace=wrap;html=1;fillColor=#fff2cc;strokeColor=#67AB9F;jettyWidth=27;jettyHeight=8;" vertex="1" parent="1">
          <mxGeometry x="353" y="414" width="108" height="42" as="geometry" />
        </mxCell>
        <mxCell id="B1Vwap48adHIZK-58PaW-6" value="訂單" style="shape=module;align=left;spacingLeft=20;align=center;verticalAlign=top;whiteSpace=wrap;html=1;fillColor=#fff2cc;strokeColor=#67AB9F;jettyWidth=27;jettyHeight=8;" vertex="1" parent="1">
          <mxGeometry x="581" y="144" width="108" height="42" as="geometry" />
        </mxCell>
        <mxCell id="B1Vwap48adHIZK-58PaW-8" value="店鋪" style="shape=module;align=left;spacingLeft=20;align=center;verticalAlign=top;whiteSpace=wrap;html=1;fillColor=#fff2cc;strokeColor=#67AB9F;jettyWidth=27;jettyHeight=8;" vertex="1" parent="1">
          <mxGeometry x="581" y="325" width="108" height="42" as="geometry" />
        </mxCell>
        <mxCell id="B1Vwap48adHIZK-58PaW-10" style="edgeStyle=orthogonalEdgeStyle;rounded=0;orthogonalLoop=1;jettySize=auto;html=1;exitX=0.5;exitY=0;exitDx=0;exitDy=0;entryX=0.5;entryY=1;entryDx=0;entryDy=0;strokeColor=#67AB9F;dashed=1;" edge="1" parent="1" source="B1Vwap48adHIZK-58PaW-9" target="B1Vwap48adHIZK-58PaW-8">
          <mxGeometry relative="1" as="geometry" />
        </mxCell>
        <mxCell id="B1Vwap48adHIZK-58PaW-9" value="餐飲" style="shape=module;align=left;spacingLeft=20;align=center;verticalAlign=top;whiteSpace=wrap;html=1;fillColor=#fff2cc;strokeColor=#67AB9F;jettyWidth=27;jettyHeight=8;" vertex="1" parent="1">
          <mxGeometry x="581" y="450" width="108" height="42" as="geometry" />
        </mxCell>
        <mxCell id="B1Vwap48adHIZK-58PaW-11" style="edgeStyle=orthogonalEdgeStyle;rounded=0;orthogonalLoop=1;jettySize=auto;html=1;exitX=1;exitY=0.5;exitDx=0;exitDy=0;strokeColor=#67AB9F;dashed=1;" edge="1" parent="1" source="B1Vwap48adHIZK-58PaW-4">
          <mxGeometry relative="1" as="geometry">
            <mxPoint x="577" y="346" as="targetPoint" />
          </mxGeometry>
        </mxCell>
        <mxCell id="B1Vwap48adHIZK-58PaW-16" value="" style="rounded=0;whiteSpace=wrap;html=1;fillColor=#fff2cc;strokeColor=#67AB9F;" vertex="1" parent="1">
          <mxGeometry x="129" y="181" width="74" height="105" as="geometry" />
        </mxCell>
        <mxCell id="B1Vwap48adHIZK-58PaW-17" value="" style="rounded=0;whiteSpace=wrap;html=1;strokeColor=#67AB9F;fillColor=#67AB9F;" vertex="1" parent="1">
          <mxGeometry x="129" y="181" width="74" height="19" as="geometry" />
        </mxCell>
        <mxCell id="B1Vwap48adHIZK-58PaW-18" value="" style="endArrow=classic;html=1;rounded=0;entryX=0;entryY=1;entryDx=13.5;entryDy=0;entryPerimeter=0;strokeColor=#67AB9F;dashed=1;" edge="1" parent="1" target="B1Vwap48adHIZK-58PaW-1">
          <mxGeometry width="50" height="50" relative="1" as="geometry">
            <mxPoint x="204" y="212" as="sourcePoint" />
            <mxPoint x="356" y="212" as="targetPoint" />
          </mxGeometry>
        </mxCell>
        <mxCell id="B1Vwap48adHIZK-58PaW-19" value="" style="endArrow=classic;html=1;rounded=0;entryX=0;entryY=0;entryDx=0;entryDy=28;entryPerimeter=0;strokeColor=#67AB9F;dashed=1;" edge="1" parent="1" target="B1Vwap48adHIZK-58PaW-2">
          <mxGeometry width="50" height="50" relative="1" as="geometry">
            <mxPoint x="204" y="224" as="sourcePoint" />
            <mxPoint x="366" y="116" as="targetPoint" />
          </mxGeometry>
        </mxCell>
        <mxCell id="B1Vwap48adHIZK-58PaW-20" style="rounded=0;orthogonalLoop=1;jettySize=auto;html=1;entryX=0;entryY=0;entryDx=0;entryDy=12;entryPerimeter=0;dashed=1;strokeColor=#67AB9F;" edge="1" parent="1" target="B1Vwap48adHIZK-58PaW-3">
          <mxGeometry relative="1" as="geometry">
            <mxPoint x="205" y="237" as="sourcePoint" />
          </mxGeometry>
        </mxCell>
        <mxCell id="B1Vwap48adHIZK-58PaW-23" style="rounded=0;orthogonalLoop=1;jettySize=auto;html=1;exitX=1;exitY=0.75;exitDx=0;exitDy=0;strokeColor=#67AB9F;dashed=1;" edge="1" parent="1" source="B1Vwap48adHIZK-58PaW-1">
          <mxGeometry relative="1" as="geometry">
            <mxPoint x="573" y="154" as="targetPoint" />
            <mxPoint x="468" y="96" as="sourcePoint" />
          </mxGeometry>
        </mxCell>
        <mxCell id="B1Vwap48adHIZK-58PaW-24" value="&lt;font style=&quot;font-size: 14px;&quot;&gt;MainSystem&lt;/font&gt;" style="text;html=1;align=center;verticalAlign=middle;resizable=0;points=[];autosize=1;strokeColor=none;fillColor=none;" vertex="1" parent="1">
          <mxGeometry x="125" y="153.5" width="95" height="29" as="geometry" />
        </mxCell>
      </root>
    </mxGraphModel>
  </diagram>
</mxfile>
